<svg width="231" height="26" viewBox="0 0 231 26" fill="none" xmlns="http://www.w3.org/2000/svg">
<path d="M0.71 25V1.2H8.095C10.825 1.2 12.925 2.02833 14.395 3.685C15.865 5.31833 16.6 7.58167 16.6 10.475V15.69C16.6 18.6067 15.865 20.8933 14.395 22.55C12.925 24.1833 10.825 25 8.095 25H0.71ZM8.025 4.07H3.755V22.165H8.025C11.6417 22.165 13.45 20.0067 13.45 15.69V10.475C13.45 6.205 11.6417 4.07 8.025 4.07ZM26.5652 1.2L33.8102 18.84L41.0902 1.2H44.5552V25H41.5802V14.815L41.9652 5.645L35.1402 22.2H32.2702L25.5852 5.575L25.9702 14.815V25H22.9952V1.2H26.5652ZM50.2637 15.655V13.135H60.0637V15.655H50.2637ZM65.7198 25V1.2H68.9048C71.0281 4.23333 72.9764 7.29 74.7498 10.37C76.5464 13.4267 78.2264 16.6233 79.7898 19.96L79.4398 10.86V1.2H82.4148V25H79.2298C77.5964 21.5933 75.9048 18.28 74.1548 15.06C72.4281 11.8167 70.5381 8.655 68.4848 5.575L68.6948 15.27V25H65.7198ZM102.975 15.27V17.37C102.975 19.8433 102.333 21.7917 101.05 23.215C99.7898 24.6383 97.9815 25.35 95.6248 25.35C93.2915 25.35 91.4831 24.6383 90.1998 23.215C88.9165 21.7917 88.2748 19.8433 88.2748 17.37V15.27C88.2748 12.8433 88.9048 10.9183 90.1648 9.495C91.4481 8.04833 93.2681 7.325 95.6248 7.325C97.9815 7.325 99.7898 8.04833 101.05 9.495C102.333 10.9183 102.975 12.8433 102.975 15.27ZM99.9998 15.27C99.9998 13.6133 99.6265 12.3183 98.8798 11.385C98.1331 10.4283 97.0481 9.95 95.6248 9.95C94.2248 9.95 93.1398 10.4283 92.3698 11.385C91.6231 12.3183 91.2498 13.6133 91.2498 15.27V17.37C91.2498 19.0967 91.6231 20.4267 92.3698 21.36C93.1398 22.2933 94.2248 22.76 95.6248 22.76C97.0481 22.76 98.1331 22.2933 98.8798 21.36C99.6265 20.4267 99.9998 19.0967 99.9998 17.37V15.27ZM117.29 10.195C116.24 10.195 115.214 10.3817 114.21 10.755C113.23 11.1283 112.18 11.84 111.06 12.89V25H108.19V7.675H110.92V10.475C112.11 9.30833 113.195 8.49167 114.175 8.025C115.179 7.55833 116.217 7.325 117.29 7.325V10.195ZM129.197 10.02C128.544 10.02 127.809 10.195 126.992 10.545C126.175 10.8717 125.149 11.525 123.912 12.505V25H121.042V7.675H123.772V10.09C125.009 9.06333 126.105 8.35167 127.062 7.955C128.019 7.535 128.964 7.325 129.897 7.325C130.994 7.325 131.904 7.58167 132.627 8.095C133.35 8.585 133.887 9.29667 134.237 10.23C135.52 9.13333 136.664 8.375 137.667 7.955C138.694 7.535 139.697 7.325 140.677 7.325C142.217 7.325 143.395 7.83833 144.212 8.865C145.029 9.86833 145.437 11.3033 145.437 13.17V25H142.567V13.59C142.567 11.21 141.704 10.02 139.977 10.02C139.324 10.02 138.577 10.195 137.737 10.545C136.92 10.8717 135.894 11.525 134.657 12.505C134.68 12.5983 134.692 12.7033 134.692 12.82C134.692 12.9367 134.692 13.0533 134.692 13.17V25H131.822V13.59C131.822 11.21 130.947 10.02 129.197 10.02ZM161.779 15.725C161.779 17.9183 162.211 19.61 163.074 20.8C163.961 21.9667 165.314 22.55 167.134 22.55C167.927 22.55 168.709 22.4567 169.479 22.27C170.249 22.0833 171.171 21.7567 172.244 21.29L173.259 23.88C172.116 24.3933 171.031 24.7667 170.004 25C168.977 25.2333 167.986 25.35 167.029 25.35C164.276 25.35 162.187 24.4867 160.764 22.76C159.341 21.0333 158.629 18.6883 158.629 15.725V10.475C158.629 7.51167 159.341 5.16666 160.764 3.44C162.187 1.71333 164.276 0.849998 167.029 0.849998C167.986 0.849998 168.977 0.966665 170.004 1.2C171.054 1.43333 172.116 1.80667 173.189 2.32L172.209 4.945C170.319 4.105 168.627 3.685 167.134 3.685C165.314 3.685 163.961 4.26833 163.074 5.435C162.211 6.60167 161.779 8.28167 161.779 10.475V15.725ZM190.839 25L189.054 19.47H180.024L178.239 25H175.264L183.174 1.2H186.044L193.989 25H190.839ZM182.229 12.61L180.899 16.705H188.144L186.814 12.61L184.539 5.26L182.229 12.61ZM198.439 25V1.2H205.859C208.146 1.2 209.884 1.80667 211.074 3.02C212.288 4.21 212.894 5.80833 212.894 7.815V9.67C212.894 11.6767 212.288 13.2867 211.074 14.5C209.884 15.7133 208.146 16.32 205.859 16.32H201.484V25H198.439ZM205.859 4.07H201.484V13.485H205.859C207.119 13.485 208.076 13.1467 208.729 12.47C209.406 11.7933 209.744 10.86 209.744 9.67V7.815C209.744 6.64833 209.406 5.73833 208.729 5.085C208.076 4.40833 207.119 4.07 205.859 4.07ZM223.06 22.62C224.53 22.62 225.662 22.305 226.455 21.675C227.249 21.0217 227.645 20.0767 227.645 18.84C227.645 17.8133 227.365 16.95 226.805 16.25C226.269 15.55 225.382 15.0133 224.145 14.64L221.31 13.8C219.537 13.2633 218.23 12.4583 217.39 11.385C216.55 10.2883 216.13 8.94667 216.13 7.36C216.13 6.14667 216.364 5.05 216.83 4.07C217.32 3.09 218.09 2.30833 219.14 1.725C220.214 1.14167 221.614 0.849998 223.34 0.849998C224.39 0.849998 225.475 0.978332 226.595 1.235C227.715 1.46833 228.847 1.85333 229.99 2.39L229.01 5.015C227.89 4.525 226.875 4.175 225.965 3.965C225.079 3.73167 224.227 3.615 223.41 3.615C222.08 3.615 221.042 3.895 220.295 4.455C219.572 4.99167 219.21 5.89 219.21 7.15C219.21 8.06 219.455 8.83 219.945 9.46C220.435 10.0667 221.31 10.5683 222.57 10.965L225.405 11.805C228.952 12.855 230.725 15.1183 230.725 18.595C230.725 20.6017 230.119 22.235 228.905 23.495C227.692 24.7317 225.744 25.35 223.06 25.35C221.964 25.35 220.797 25.2217 219.56 24.965C218.347 24.685 217.087 24.2533 215.78 23.67L216.725 21.08C217.962 21.64 219.07 22.0367 220.05 22.27C221.054 22.5033 222.057 22.62 223.06 22.62Z" fill="white"/>
</svg>
