<svg width="247" height="23" viewBox="0 0 247 23" fill="none" xmlns="http://www.w3.org/2000/svg">
<path d="M17.29 22H14.59V12.01H3.61V22H0.91V0.579999H3.61V9.64H14.59V0.579999H17.29V22ZM28.1263 11.11L33.7063 0.579999H36.6163L29.4763 13.69V22H26.7763V13.81L19.6363 0.579999H22.5763L28.1263 11.11ZM44.6085 0.579999C47.4085 0.579999 49.4485 1.13 50.7285 2.23C52.0085 3.33 52.6485 4.88 52.6485 6.88C52.6485 7.76 52.4985 8.61 52.1985 9.43C51.9185 10.23 51.4485 10.95 50.7885 11.59C50.1285 12.23 49.2485 12.74 48.1485 13.12C47.0485 13.48 45.6985 13.66 44.0985 13.66H41.6385V22H38.9385V0.579999H44.6085ZM44.3685 2.89H41.6385V11.35H43.7985C45.1585 11.35 46.2885 11.21 47.1885 10.93C48.0885 10.63 48.7585 10.16 49.1985 9.52C49.6385 8.88 49.8585 8.04 49.8585 7C49.8585 5.62 49.4185 4.59 48.5385 3.91C47.6585 3.23 46.2685 2.89 44.3685 2.89ZM68.4726 22H56.5026V0.579999H68.4726V2.95H59.2026V9.64H67.9326V11.98H59.2026V19.63H68.4726V22ZM78.4825 0.579999C80.2625 0.579999 81.7225 0.809999 82.8625 1.27C84.0225 1.71 84.8825 2.38 85.4425 3.28C86.0025 4.18 86.2825 5.31 86.2825 6.67C86.2825 7.81 86.0725 8.76 85.6525 9.52C85.2325 10.28 84.6925 10.89 84.0325 11.35C83.3925 11.79 82.7125 12.14 81.9925 12.4L87.8725 22H84.7225L79.5325 13.15H75.2725V22H72.5725V0.579999H78.4825ZM78.3325 2.92H75.2725V10.87H78.4825C79.6425 10.87 80.5925 10.72 81.3325 10.42C82.0725 10.1 82.6125 9.64 82.9525 9.04C83.3125 8.44 83.4925 7.69 83.4925 6.79C83.4925 5.85 83.3025 5.1 82.9225 4.54C82.5625 3.98 82.0025 3.57 81.2425 3.31C80.4825 3.05 79.5125 2.92 78.3325 2.92ZM97.4146 22H94.7146V2.95H88.0246V0.579999H104.075V2.95H97.4146V22ZM124.809 11.26C124.809 12.92 124.599 14.43 124.179 15.79C123.759 17.13 123.129 18.29 122.289 19.27C121.469 20.25 120.439 21 119.199 21.52C117.979 22.04 116.559 22.3 114.939 22.3C113.259 22.3 111.799 22.04 110.559 21.52C109.319 20.98 108.289 20.23 107.469 19.27C106.649 18.29 106.039 17.12 105.639 15.76C105.239 14.4 105.039 12.89 105.039 11.23C105.039 9.03 105.399 7.11 106.119 5.47C106.839 3.83 107.929 2.55 109.389 1.63C110.869 0.709999 112.729 0.249999 114.969 0.249999C117.109 0.249999 118.909 0.709999 120.369 1.63C121.829 2.53 122.929 3.81 123.669 5.47C124.429 7.11 124.809 9.04 124.809 11.26ZM107.889 11.26C107.889 13.06 108.139 14.61 108.639 15.91C109.139 17.21 109.909 18.21 110.949 18.91C112.009 19.61 113.339 19.96 114.939 19.96C116.559 19.96 117.879 19.61 118.899 18.91C119.939 18.21 120.709 17.21 121.209 15.91C121.709 14.61 121.959 13.06 121.959 11.26C121.959 8.56 121.399 6.45 120.279 4.93C119.159 3.39 117.389 2.62 114.969 2.62C113.349 2.62 112.009 2.97 110.949 3.67C109.909 4.35 109.139 5.34 108.639 6.64C108.139 7.92 107.889 9.46 107.889 11.26ZM145.936 22H142.786L131.326 4.21H131.206C131.226 4.57 131.246 4.97 131.266 5.41C131.306 5.85 131.336 6.33 131.356 6.85C131.376 7.35 131.396 7.87 131.416 8.41C131.436 8.95 131.446 9.49 131.446 10.03V22H128.956V0.579999H132.076L143.506 18.31H143.626C143.606 18.07 143.586 17.74 143.566 17.32C143.546 16.88 143.526 16.4 143.506 15.88C143.486 15.34 143.466 14.79 143.446 14.23C143.426 13.67 143.416 13.15 143.416 12.67V0.579999H145.936V22ZM165.056 22H162.356V0.579999H174.326V2.95H165.056V10.54H173.756V12.91H165.056V22ZM196.002 11.26C196.002 12.92 195.792 14.43 195.372 15.79C194.952 17.13 194.322 18.29 193.482 19.27C192.662 20.25 191.632 21 190.392 21.52C189.172 22.04 187.752 22.3 186.132 22.3C184.452 22.3 182.992 22.04 181.752 21.52C180.512 20.98 179.482 20.23 178.662 19.27C177.842 18.29 177.232 17.12 176.832 15.76C176.432 14.4 176.232 12.89 176.232 11.23C176.232 9.03 176.592 7.11 177.312 5.47C178.032 3.83 179.122 2.55 180.582 1.63C182.062 0.709999 183.922 0.249999 186.162 0.249999C188.302 0.249999 190.102 0.709999 191.562 1.63C193.022 2.53 194.122 3.81 194.862 5.47C195.622 7.11 196.002 9.04 196.002 11.26ZM179.082 11.26C179.082 13.06 179.332 14.61 179.832 15.91C180.332 17.21 181.102 18.21 182.142 18.91C183.202 19.61 184.532 19.96 186.132 19.96C187.752 19.96 189.072 19.61 190.092 18.91C191.132 18.21 191.902 17.21 192.402 15.91C192.902 14.61 193.152 13.06 193.152 11.26C193.152 8.56 192.592 6.45 191.472 4.93C190.352 3.39 188.582 2.62 186.162 2.62C184.542 2.62 183.202 2.97 182.142 3.67C181.102 4.35 180.332 5.34 179.832 6.64C179.332 7.92 179.082 9.46 179.082 11.26ZM206.06 0.579999C207.84 0.579999 209.3 0.809999 210.44 1.27C211.6 1.71 212.46 2.38 213.02 3.28C213.58 4.18 213.86 5.31 213.86 6.67C213.86 7.81 213.65 8.76 213.23 9.52C212.81 10.28 212.27 10.89 211.61 11.35C210.97 11.79 210.29 12.14 209.57 12.4L215.45 22H212.3L207.11 13.15H202.85V22H200.15V0.579999H206.06ZM205.91 2.92H202.85V10.87H206.06C207.22 10.87 208.17 10.72 208.91 10.42C209.65 10.1 210.19 9.64 210.53 9.04C210.89 8.44 211.07 7.69 211.07 6.79C211.07 5.85 210.88 5.1 210.5 4.54C210.14 3.98 209.58 3.57 208.82 3.31C208.06 3.05 207.09 2.92 205.91 2.92ZM224.992 22H222.292V2.95H215.602V0.579999H231.652V2.95H224.992V22ZM246.252 22H234.282V0.579999H246.252V2.95H236.982V9.64H245.712V11.98H236.982V19.63H246.252V22Z" fill="white"/>
</svg>
